# xmcd
#
# Track frame offsets:
#	150
#	10882
#	33918
#	52025
#	70192
#	93068
#	113505
#	135769
#	156155
#	174564
#	187488
#	199685
#
# Disc length: 2839 seconds
#
# Revision: 1
# Processed by: cddbd v1.5.2PL0 Copyright (c) Steve Scherf et al.
# Submitted via: audiograbber 1.82.02
#
DISCID=970b150c
DTITLE=Garth Brooks - The Ultimate Collection - Disc 8 (RPMs)
DYEAR=2016
DGENRE=Country
TTITLE0=Garth Brooks - Against The Grain
TTITLE1=Garth Brooks - She's Tired Of Boys
TTITLE2=Garth Brooks - Rollin'
TTITLE3=Garth Brooks - Addicted To Love
TTITLE4=Garth Brooks - Cold Like That
TTITLE5=Garth Brooks - You Move Me
TTITLE6=Garth Brooks - Ireland
TTITLE7=Garth Brooks - Don't Cross The River
TTITLE8=Garth Brooks - I'll Be The Wind
TTITLE9=Garth Brooks - Doctor My Eyes
TTITLE10=Garth Brooks and Huey Lewis - Working For A Living
TTITLE11=Garth Brooks - Do What You Gotta Do
EXTD=
EXTT0=
EXTT1=
EXTT2=
EXTT3=
EXTT4=
EXTT5=
EXTT6=
EXTT7=
EXTT8=
EXTT9=
EXTT10=
EXTT11=
PLAYORDER=
